<svg width="53" height="53" viewBox="0 0 53 53" fill="none" xmlns="http://www.w3.org/2000/svg">
<rect x="0.5" y="0.730469" width="52" height="52" rx="26" fill="#F0F0F1"/>
<g clip-path="url(#clip0_79_114)">
<path fill-rule="evenodd" clip-rule="evenodd" d="M31.833 26.7301C31.833 28.1968 33.033 29.3968 34.4997 29.3968C35.9663 29.3968 37.1663 28.1968 37.1663 26.7301C37.1663 25.2635 35.9663 24.0635 34.4997 24.0635C33.033 24.0635 31.833 25.2635 31.833 26.7301ZM26.4997 24.0635C25.033 24.0635 23.833 25.2635 23.833 26.7301C23.833 28.1968 25.033 29.3968 26.4997 29.3968C27.9663 29.3968 29.1663 28.1968 29.1663 26.7301C29.1663 25.2635 27.9663 24.0635 26.4997 24.0635ZM15.833 26.7301C15.833 25.2635 17.033 24.0635 18.4997 24.0635C19.9663 24.0635 21.1663 25.2635 21.1663 26.7301C21.1663 28.1968 19.9663 29.3968 18.4997 29.3968C17.033 29.3968 15.833 28.1968 15.833 26.7301Z" fill="#A1A3A8"/>
</g>
<defs>
<clipPath id="clip0_79_114">
<rect width="32" height="32" fill="white" transform="translate(10.5 10.7305)"/>
</clipPath>
</defs>
</svg>
