<svg width="19" height="18" viewBox="0 0 19 18" fill="none" xmlns="http://www.w3.org/2000/svg">
<g clip-path="url(#clip0_40_1180)">
<path fill-rule="evenodd" clip-rule="evenodd" d="M13.55 3C13.55 2.60218 13.392 2.22064 13.1107 1.93934C12.8294 1.65804 12.4479 1.5 12.05 1.5H9.80004C9.40222 1.5 9.02069 1.65804 8.73938 1.93934C8.45808 2.22064 8.30004 2.60218 8.30004 3V4.15125C7.95469 4.35093 7.65255 4.61738 7.41124 4.93505C7.16993 5.25271 6.99429 5.61524 6.89454 6.0015C6.86305 6.00061 6.83155 6.00011 6.80004 6L6.63729 6.00375C5.67185 6.04569 4.75988 6.45871 4.09154 7.15667C3.4232 7.85463 3.0501 8.78365 3.05004 9.75H2.30004C2.19262 9.75 2.08644 9.77308 1.98871 9.81767C1.89098 9.86227 1.80396 9.92734 1.73356 10.0085C1.66316 10.0896 1.61101 10.1849 1.58064 10.288C1.55027 10.391 1.54239 10.4994 1.55754 10.6057L2.30754 15.8558C2.333 16.0345 2.42212 16.1981 2.55852 16.3165C2.69493 16.4348 2.86945 16.5 3.05004 16.5H15.05C15.2306 16.5 15.4052 16.4348 15.5416 16.3165C15.678 16.1981 15.7671 16.0345 15.7925 15.8558L16.5425 10.6057C16.5577 10.4994 16.5498 10.391 16.5194 10.288C16.4891 10.1849 16.4369 10.0896 16.3665 10.0085C16.2961 9.92734 16.2091 9.86227 16.1114 9.81767C16.0136 9.77308 15.9075 9.75 15.8 9.75H15.05V6.75L15.0448 6.576C15.016 6.07982 14.8645 5.59856 14.6037 5.17546C14.3429 4.75235 13.9811 4.40067 13.5508 4.152L13.55 3ZM3.70029 15L3.16479 11.25H14.9353L14.3998 15H3.70029ZM12.05 5.25H9.80004C9.47401 5.24982 9.15679 5.35587 8.89642 5.5521C8.63605 5.74832 8.4467 6.02404 8.35704 6.3375C8.98431 6.62401 9.52049 7.07784 9.9067 7.64914C10.2929 8.22045 10.5142 8.88714 10.5463 9.576L10.55 9.75H13.55V6.75C13.5502 6.37157 13.4072 6.00708 13.1499 5.72959C12.8926 5.4521 12.5399 5.28213 12.1625 5.25375L12.05 5.25ZM4.55379 9.618C4.58759 9.0333 4.84804 8.48481 5.27981 8.0891C5.71159 7.69338 6.28064 7.48161 6.86607 7.4988C7.4515 7.51599 8.00715 7.76077 8.41496 8.18114C8.82278 8.6015 9.05061 9.16432 9.05004 9.75H4.55004L4.55379 9.618ZM12.05 3H9.80004V3.75H12.05V3ZM11.3 13.5V12H6.80004V13.5H11.3Z" fill="#A1A3A8"/>
</g>
<defs>
<clipPath id="clip0_40_1180">
<rect width="18" height="18" fill="white" transform="translate(0.0500488)"/>
</clipPath>
</defs>
</svg>
