<svg width="19" height="18" viewBox="0 0 19 18" fill="none" xmlns="http://www.w3.org/2000/svg">
<g clip-path="url(#clip0_40_1191)">
<path fill-rule="evenodd" clip-rule="evenodd" d="M9.39126 6.82888C9.55776 7.12663 9.69875 7.37638 9.74075 7.46038C10.0115 8.00338 10.13 8.44288 10.13 9.00013C10.13 9.39795 9.97197 9.77948 9.69066 10.0608C9.40936 10.3421 9.02783 10.5001 8.63 10.5001C8.23218 10.5001 7.85065 10.3421 7.56934 10.0608C7.28804 9.77948 7.13 9.39795 7.13 9.00013L7.13226 5.58238C7.13226 4.86763 6.22775 4.55713 5.78975 5.12263C4.19525 7.17913 3.38 8.92963 3.38 10.4169C3.38 13.7739 6.0635 16.5001 9.38 16.5001C12.6965 16.5001 15.38 13.7739 15.38 10.4169C15.38 8.19088 13.5425 5.33188 9.90875 1.71838C9.82461 1.63464 9.72179 1.57208 9.60875 1.53582C9.4957 1.49957 9.37567 1.49067 9.25852 1.50986C9.14137 1.52904 9.03045 1.57576 8.93487 1.64617C8.83929 1.71658 8.7618 1.80868 8.70875 1.91488C8.1035 3.12613 8.1035 4.37488 8.70875 5.58538C8.84225 5.85238 9.14526 6.39238 9.39126 6.82888ZM5.63 9.00013C5.63 9.79578 5.94608 10.5588 6.50868 11.1214C7.07129 11.6841 7.83436 12.0001 8.63 12.0001C9.42565 12.0001 10.1887 11.6841 10.7513 11.1214C11.3139 10.5588 11.63 9.79578 11.63 9.00013C11.63 8.19163 11.4515 7.52863 11.0825 6.78988C11.0233 6.67288 10.85 6.36313 10.658 6.02188C10.4494 5.65628 10.2468 5.28723 10.0505 4.91488C9.84575 4.50538 9.74751 4.10563 9.75576 3.70588C12.515 6.60838 13.88 8.87563 13.88 10.4169C13.88 12.9504 11.8625 15.0001 9.38 15.0001C6.8975 15.0001 4.88 12.9504 4.88 10.4169C4.88 9.76438 5.1275 8.97313 5.63 8.05138V9.00013Z" fill="#A1A3A8"/>
</g>
<defs>
<clipPath id="clip0_40_1191">
<rect width="18" height="18" fill="white" transform="translate(0.380005)"/>
</clipPath>
</defs>
</svg>
