<svg width="19" height="18" viewBox="0 0 19 18" fill="none" xmlns="http://www.w3.org/2000/svg">
<g clip-path="url(#clip0_40_1185)">
<path d="M11.66 10.5H15.41V12H11.66V10.5Z" fill="#A1A3A8"/>
<path fill-rule="evenodd" clip-rule="evenodd" d="M3.41003 3H15.41C16.0068 3 16.5791 3.23705 17.001 3.65901C17.423 4.08097 17.66 4.65326 17.66 5.25V12.75C17.66 13.3467 17.423 13.919 17.001 14.341C16.5791 14.7629 16.0068 15 15.41 15H3.41003C2.8133 15 2.241 14.7629 1.81904 14.341C1.39709 13.919 1.16003 13.3467 1.16003 12.75V5.25C1.16003 4.65326 1.39709 4.08097 1.81904 3.65901C2.241 3.23705 2.8133 3 3.41003 3ZM3.41003 4.5C3.21112 4.5 3.02036 4.57902 2.8797 4.71967C2.73905 4.86032 2.66003 5.05109 2.66003 5.25V12.75C2.66003 13.164 2.99603 13.5 3.41003 13.5H6.41003V10.81L5.44003 11.78L4.38003 10.72L5.36803 9.731C5.0557 9.68966 4.75553 9.5832 4.48695 9.41849C4.21838 9.25378 3.98739 9.0345 3.80894 8.77485C3.63049 8.5152 3.50856 8.22097 3.45105 7.91121C3.39353 7.60144 3.40171 7.28305 3.47505 6.97665C3.5484 6.67025 3.68527 6.38267 3.87682 6.13252C4.06836 5.88238 4.31031 5.67525 4.58698 5.52455C4.86366 5.37385 5.1689 5.28293 5.48295 5.25768C5.79699 5.23244 6.11284 5.27343 6.41003 5.378V4.5H3.41003ZM6.41003 8.25V7.5C6.41003 7.35166 6.36605 7.20666 6.28364 7.08332C6.20123 6.95999 6.08409 6.86386 5.94705 6.80709C5.81 6.75032 5.6592 6.73547 5.51372 6.76441C5.36823 6.79335 5.23459 6.86478 5.1297 6.96967C5.02481 7.07456 4.95338 7.2082 4.92445 7.35368C4.89551 7.49917 4.91036 7.64997 4.96712 7.78701C5.02389 7.92406 5.12002 8.04119 5.24336 8.1236C5.36669 8.20601 5.5117 8.25 5.66003 8.25H6.41003ZM7.91003 5.378V4.5H15.41C15.6089 4.5 15.7997 4.57902 15.9404 4.71967C16.081 4.86032 16.16 5.05109 16.16 5.25V12.75C16.16 12.9489 16.081 13.1397 15.9404 13.2803C15.7997 13.421 15.6089 13.5 15.41 13.5H7.91003V10.81L8.88003 11.78L9.94003 10.72L8.95203 9.731C9.26437 9.68966 9.56454 9.5832 9.83311 9.41849C10.1017 9.25378 10.3327 9.0345 10.5111 8.77485C10.6896 8.5152 10.8115 8.22097 10.869 7.91121C10.9265 7.60144 10.9184 7.28305 10.845 6.97665C10.7717 6.67025 10.6348 6.38267 10.4432 6.13252C10.2517 5.88238 10.0098 5.67525 9.73309 5.52455C9.45641 5.37385 9.15117 5.28293 8.83712 5.25768C8.52308 5.23244 8.20723 5.27343 7.91003 5.378ZM7.91003 8.25H8.66003C8.80837 8.25 8.95337 8.20601 9.07671 8.1236C9.20005 8.04119 9.29618 7.92406 9.35294 7.78701C9.40971 7.64997 9.42456 7.49917 9.39562 7.35368C9.36668 7.2082 9.29525 7.07456 9.19036 6.96967C9.08547 6.86478 8.95184 6.79335 8.80635 6.76441C8.66087 6.73547 8.51007 6.75032 8.37302 6.80709C8.23598 6.86386 8.11884 6.95999 8.03643 7.08332C7.95402 7.20666 7.91003 7.35166 7.91003 7.5V8.25Z" fill="#A1A3A8"/>
</g>
<defs>
<clipPath id="clip0_40_1185">
<rect width="18" height="18" fill="white" transform="translate(0.410034)"/>
</clipPath>
</defs>
</svg>
