<svg width="19" height="18" viewBox="0 0 19 18" fill="none" xmlns="http://www.w3.org/2000/svg">
<g clip-path="url(#clip0_40_1196)">
<path fill-rule="evenodd" clip-rule="evenodd" d="M17 3C17.1989 3 17.3897 3.07902 17.5303 3.21967C17.671 3.36032 17.75 3.55109 17.75 3.75V14.25C17.75 14.4489 17.671 14.6397 17.5303 14.7803C17.3897 14.921 17.1989 15 17 15H5C4.8011 15 4.61037 14.9209 4.46975 14.7803L1.46975 11.7802C1.32909 11.6396 1.25004 11.4489 1.25 11.25V6.75C1.25004 6.5511 1.32909 6.36037 1.46975 6.21975L4.46975 3.21975C4.61037 3.07909 4.8011 3.00004 5 3H17ZM16.25 4.5H5.3105L2.75 7.0605V10.9395L5.3105 13.5H16.25V4.5ZM11.75 7.125C11.75 7.42337 11.6315 7.70952 11.4205 7.9205C11.2095 8.13147 10.9234 8.25 10.625 8.25C10.3266 8.25 10.0405 8.13147 9.8295 7.9205C9.61853 7.70952 9.5 7.42337 9.5 7.125C9.5 6.82663 9.61853 6.54048 9.8295 6.3295C10.0405 6.11853 10.3266 6 10.625 6C10.9234 6 11.2095 6.11853 11.4205 6.3295C11.6315 6.54048 11.75 6.82663 11.75 7.125ZM13.625 12C13.9234 12 14.2095 11.8815 14.4205 11.6705C14.6315 11.4595 14.75 11.1734 14.75 10.875C14.75 10.5766 14.6315 10.2905 14.4205 10.0795C14.2095 9.86853 13.9234 9.75 13.625 9.75C13.3266 9.75 13.0405 9.86853 12.8295 10.0795C12.6185 10.2905 12.5 10.5766 12.5 10.875C12.5 11.1734 12.6185 11.4595 12.8295 11.6705C13.0405 11.8815 13.3266 12 13.625 12ZM8 9C8 9.29547 7.9418 9.58806 7.82873 9.86104C7.71566 10.134 7.54992 10.3821 7.34099 10.591C7.13206 10.7999 6.88402 10.9657 6.61104 11.0787C6.33806 11.1918 6.04547 11.25 5.75 11.25C5.45453 11.25 5.16194 11.1918 4.88896 11.0787C4.61598 10.9657 4.36794 10.7999 4.15901 10.591C3.95008 10.3821 3.78434 10.134 3.67127 9.86104C3.5582 9.58806 3.5 9.29547 3.5 9C3.5 8.40326 3.73705 7.83097 4.15901 7.40901C4.58097 6.98705 5.15326 6.75 5.75 6.75C6.34674 6.75 6.91903 6.98705 7.34099 7.40901C7.76295 7.83097 8 8.40326 8 9ZM5 9C5 9.19891 5.07902 9.38968 5.21967 9.53033C5.36032 9.67098 5.55109 9.75 5.75 9.75C5.94891 9.75 6.13968 9.67098 6.28033 9.53033C6.42098 9.38968 6.5 9.19891 6.5 9C6.5 8.80109 6.42098 8.61032 6.28033 8.46967C6.13968 8.32902 5.94891 8.25 5.75 8.25C5.55109 8.25 5.36032 8.32902 5.21967 8.46967C5.07902 8.61032 5 8.80109 5 9ZM14.636 6.3975L10.886 12.3975L9.614 11.6025L13.364 5.6025L14.636 6.3975Z" fill="#A1A3A8"/>
</g>
<defs>
<clipPath id="clip0_40_1196">
<rect width="18" height="18" fill="white" transform="translate(0.5)"/>
</clipPath>
</defs>
</svg>
