<svg width="21" height="20" viewBox="0 0 21 20" fill="none" xmlns="http://www.w3.org/2000/svg">
<g clip-path="url(#clip0_40_1164)">
<path fill-rule="evenodd" clip-rule="evenodd" d="M4.2832 8.00852C4.2832 4.49185 7.27487 1.66602 10.9499 1.66602C14.6249 1.66602 17.6165 4.49102 17.6165 8.00852C17.6165 10.3568 16.429 12.6068 14.4765 14.7035C13.8262 15.3986 13.126 16.0453 12.3815 16.6385C11.9507 16.9827 11.6124 17.2268 11.4099 17.361L10.9499 17.666L10.4899 17.361C10.2874 17.2277 9.9482 16.9827 9.5182 16.6385C8.77377 16.0453 8.07358 15.3986 7.4232 14.7035C5.4707 12.6068 4.2832 10.356 4.2832 8.00768V8.00852ZM11.3415 15.3368C11.9949 14.8143 12.649 14.2202 13.2565 13.5668C14.9499 11.7502 15.9499 9.85518 15.9499 8.00852C15.9499 5.43352 13.7249 3.33268 10.9499 3.33268C8.17487 3.33268 5.94987 5.43435 5.94987 8.00852C5.94987 9.85435 6.94987 11.7502 8.6432 13.5668C9.35082 14.3232 10.1226 15.0169 10.9499 15.6402C11.0732 15.5477 11.204 15.446 11.3415 15.3368ZM10.9499 11.666C10.0787 11.6465 9.24981 11.2868 8.64059 10.6638C8.03137 10.0408 7.69024 9.20405 7.69024 8.33268C7.69024 7.46131 8.03137 6.62457 8.64059 6.00157C9.24981 5.37857 10.0787 5.01883 10.9499 4.99935C11.821 5.01883 12.6499 5.37857 13.2591 6.00157C13.8684 6.62457 14.2095 7.46131 14.2095 8.33268C14.2095 9.20405 13.8684 10.0408 13.2591 10.6638C12.6499 11.2868 11.821 11.6465 10.9499 11.666ZM10.9499 9.99935C11.3828 9.98566 11.7934 9.80406 12.0948 9.493C12.3961 9.18193 12.5647 8.7658 12.5647 8.33268C12.5647 7.89956 12.3961 7.48343 12.0948 7.17237C11.7934 6.8613 11.3828 6.67971 10.9499 6.66602C10.517 6.67971 10.1064 6.8613 9.80499 7.17237C9.50361 7.48343 9.33508 7.89956 9.33508 8.33268C9.33508 8.7658 9.50361 9.18193 9.80499 9.493C10.1064 9.80406 10.517 9.98566 10.9499 9.99935Z" fill="#424750"/>
</g>
<defs>
<clipPath id="clip0_40_1164">
<rect width="20" height="20" fill="white" transform="translate(0.949951)"/>
</clipPath>
</defs>
</svg>
