<svg width="19" height="18" viewBox="0 0 19 18" fill="none" xmlns="http://www.w3.org/2000/svg">
<g clip-path="url(#clip0_40_1175)">
<path fill-rule="evenodd" clip-rule="evenodd" d="M12.2841 1.67498C12.7993 1.84823 13.1488 2.06873 13.7053 2.55323L14.1073 2.90873L14.1891 2.97623L14.2956 3.05423L14.7853 3.36923C15.4131 3.77423 15.7183 4.04423 16.0326 4.49048C16.3183 4.89698 16.4668 5.24048 16.6281 5.87123L16.7976 6.57698L16.8373 6.71573L16.8741 6.82223L17.0878 7.36148C17.3578 8.04698 17.4501 8.45423 17.4501 8.99948C17.4501 9.54548 17.3571 9.95198 17.0878 10.6375L16.9033 11.0987L16.8433 11.2637L16.7983 11.422L16.6281 12.1277C16.4668 12.7592 16.3183 13.1027 16.0318 13.51C15.7198 13.9525 15.4153 14.2225 14.7973 14.6222L14.2948 14.9455L14.1898 15.0235L14.0578 15.1337L13.7046 15.4465C13.1481 15.931 12.7986 16.1515 12.2811 16.3255C11.7651 16.498 11.3766 16.5295 10.6131 16.4747L10.0978 16.4357L9.95007 16.4312L9.88557 16.432L9.72657 16.4395L9.28707 16.4747C8.52357 16.5295 8.13432 16.4972 7.61457 16.324C7.10007 16.1507 6.75057 15.931 6.19482 15.4465L5.74932 15.055L5.64132 14.9717L5.56407 14.9177L5.09982 14.6215C4.48407 14.2225 4.17807 13.951 3.86757 13.5092C3.55482 13.0645 3.40707 12.6955 3.22632 11.9455L3.11682 11.4797L3.07107 11.311L3.02607 11.1767L2.81232 10.6375C2.54232 9.95198 2.45007 9.54623 2.45007 8.99948C2.45007 8.45423 2.54307 8.04698 2.81232 7.36148L3.02607 6.82373L3.08757 6.63023L3.11682 6.51998L3.22632 6.05423L3.31482 5.70923C3.46107 5.17898 3.60732 4.86098 3.86757 4.49123C4.17807 4.04873 4.48257 3.77873 5.09982 3.37898L5.51382 3.11498L5.62857 3.03698L5.74857 2.94473L5.84157 2.86598L6.19407 2.55323C6.75132 2.06873 7.10082 1.84823 7.61682 1.67498C8.13432 1.50098 8.52357 1.46948 9.28707 1.52498L9.81207 1.56398L9.98307 1.56773L10.1893 1.55798L10.6123 1.52498C11.3773 1.46948 11.7666 1.50173 12.2841 1.67498ZM10.8358 3.01298L10.1683 3.06173C10.0896 3.06623 10.0183 3.06773 9.95007 3.06773L9.74382 3.06248L9.62682 3.05573L9.20457 3.02273L8.91582 3.00473C8.53032 2.98673 8.34057 3.01373 8.09532 3.09623L8.01432 3.12548C7.75182 3.22448 7.54932 3.36023 7.16082 3.70073L6.74832 4.06523L6.63207 4.15898L6.52557 4.23923L6.35307 4.35773L5.81307 4.70423C5.42532 4.96148 5.26332 5.11298 5.09457 5.35373C4.92207 5.59823 4.83432 5.80073 4.71207 6.28898L4.56732 6.90023L4.52982 7.04273L4.49232 7.17023L4.42182 7.37348L4.16307 8.02598C3.99582 8.46473 3.95007 8.69498 3.95007 8.99948L3.95157 9.08948C3.96057 9.35198 4.01307 9.57698 4.16307 9.97448L4.44057 10.675L4.49307 10.8325L4.54857 11.0252L4.71282 11.7107C4.83432 12.1982 4.92282 12.4007 5.09532 12.646C5.28057 12.91 5.45907 13.069 5.93607 13.3757L6.35532 13.6427C6.44382 13.7005 6.50832 13.7462 6.57732 13.798L6.63207 13.84L6.81282 13.99L7.16082 14.2982C7.58757 14.6732 7.79007 14.8007 8.09157 14.902C8.39457 15.0032 8.61207 15.0212 9.20457 14.977L9.43407 14.9582L9.85032 14.9327L9.95007 14.9312C10.0176 14.9312 10.0896 14.9335 10.1683 14.9372L10.2928 14.9447L10.6948 14.977C11.2873 15.0212 11.5048 15.0032 11.8033 14.9035C12.1086 14.8 12.3118 14.6725 12.7386 14.2982L13.0288 14.0402L13.1878 13.9037L13.3236 13.7972L13.4631 13.6975L13.5441 13.6427L14.0848 13.2962C14.4733 13.0397 14.6361 12.8867 14.8048 12.6467C14.9923 12.379 15.0801 12.1637 15.2203 11.5735L15.2886 11.2802C15.3126 11.1767 15.3328 11.0965 15.3516 11.0252L15.4078 10.8302L15.4783 10.6255L15.7371 9.97373C15.9043 9.53348 15.9501 9.30323 15.9501 8.99948C15.9501 8.69573 15.9043 8.46548 15.7371 8.02523L15.4596 7.32473L15.3883 7.10498L15.3321 6.89948L15.2203 6.42623L15.1468 6.13373C15.0651 5.83223 14.9946 5.65373 14.8918 5.48498L14.8056 5.35373C14.6361 5.11373 14.4748 4.96148 14.0856 4.70423L13.6176 4.40423C13.553 4.36301 13.4892 4.3205 13.4263 4.27673L13.2673 4.15898L13.1511 4.06448L12.6283 3.60473C12.3133 3.33698 12.1266 3.21773 11.8956 3.12923L11.7321 3.07373C11.4906 3.00023 11.2798 2.98373 10.8358 3.01298ZM12.9501 11.6245C12.9501 11.3261 12.8315 11.04 12.6206 10.829C12.4096 10.618 12.1234 10.4995 11.8251 10.4995C11.5267 10.4995 11.2406 10.618 11.0296 10.829C10.8186 11.04 10.7001 11.3261 10.7001 11.6245C10.7001 11.9229 10.8186 12.209 11.0296 12.42C11.2406 12.631 11.5267 12.7495 11.8251 12.7495C12.1234 12.7495 12.4096 12.631 12.6206 12.42C12.8315 12.209 12.9501 11.9229 12.9501 11.6245ZM11.6001 5.54948L12.8001 6.44948L8.30007 12.4495L7.10007 11.5495L11.6001 5.54948ZM9.20007 6.37448C9.20007 6.07611 9.08155 5.78997 8.87057 5.57899C8.65959 5.36801 8.37344 5.24948 8.07507 5.24948C7.7767 5.24948 7.49056 5.36801 7.27958 5.57899C7.0686 5.78997 6.95007 6.07611 6.95007 6.37448C6.95007 6.67285 7.0686 6.959 7.27958 7.16998C7.49056 7.38096 7.7767 7.49948 8.07507 7.49948C8.37344 7.49948 8.65959 7.38096 8.87057 7.16998C9.08155 6.959 9.20007 6.67285 9.20007 6.37448Z" fill="#A1A3A8"/>
</g>
<defs>
<clipPath id="clip0_40_1175">
<rect width="18" height="18" fill="white" transform="translate(0.950073)"/>
</clipPath>
</defs>
</svg>
