<svg width="25" height="25" viewBox="0 0 25 25" fill="none" xmlns="http://www.w3.org/2000/svg">
<g clip-path="url(#clip0_95_8)">
<path d="M2.54346 13.1332C2.45896 13.0303 2.39668 12.9109 2.36051 12.7827C2.32434 12.6546 2.31508 12.5203 2.3333 12.3883C2.35152 12.2564 2.39683 12.1296 2.46638 12.016C2.53593 11.9024 2.62822 11.8045 2.73746 11.7282L4.34746 10.6022C4.54595 10.465 4.78845 10.4066 5.02767 10.4383C5.2669 10.4701 5.48571 10.5899 5.64146 10.7742C6.46924 11.7359 7.49465 12.5077 8.64777 13.0372C9.80088 13.5666 11.0546 13.8412 12.3235 13.8422C13.5923 13.8413 14.8461 13.5667 15.9992 13.0373C17.1523 12.5078 18.1777 11.7359 19.0055 10.7742C19.1612 10.5896 19.3802 10.4697 19.6197 10.4379C19.8592 10.4061 20.1019 10.4647 20.3005 10.6022L21.9095 11.7282C22.0188 11.8044 22.1112 11.9023 22.1809 12.0159C22.2505 12.1295 22.2959 12.2563 22.3141 12.3883C22.3323 12.5202 22.323 12.6546 22.2868 12.7828C22.2505 12.911 22.1881 13.0303 22.1035 13.1332C20.9107 14.5703 19.416 15.7271 17.7258 16.5214C16.0355 17.3157 14.1911 17.7281 12.3235 17.7292C10.4558 17.728 8.61128 17.3155 6.92101 16.521C5.23073 15.7265 3.73616 14.5695 2.54346 13.1322V13.1332Z" fill="#EF4056"/>
</g>
<defs>
<clipPath id="clip0_95_8">
<rect width="24" height="24" fill="white" transform="translate(0.324219 0.429199)"/>
</clipPath>
</defs>
</svg>
