<svg width="19" height="18" viewBox="0 0 19 18" fill="none" xmlns="http://www.w3.org/2000/svg">
<path fill-rule="evenodd" clip-rule="evenodd" d="M7.99999 15C6.30852 14.9998 4.66679 14.4278 3.34137 13.377C2.01594 12.3261 1.08466 10.8581 0.698742 9.2112C0.312819 7.56434 0.494918 5.83539 1.21547 4.30507C1.93602 2.77475 3.15271 1.53294 4.66798 0.781265C6.18326 0.0295899 7.90813 -0.187803 9.56252 0.164383C11.2169 0.51657 12.7037 1.41766 13.7814 2.72133C14.8592 4.025 15.4646 5.6547 15.4993 7.34581C15.5341 9.03692 14.9962 10.6901 13.973 12.037L18.342 16.283L16.948 17.717L12.561 13.454C11.2531 14.4589 9.64935 15.0025 7.99999 15ZM13.5 7.50001C13.5 8.9587 12.9205 10.3576 11.8891 11.3891C10.8576 12.4205 9.45868 13 7.99999 13C6.5413 13 5.14236 12.4205 4.11091 11.3891C3.07946 10.3576 2.49999 8.9587 2.49999 7.50001C2.49999 6.04132 3.07946 4.64237 4.11091 3.61092C5.14236 2.57947 6.5413 2.00001 7.99999 2.00001C9.45868 2.00001 10.8576 2.57947 11.8891 3.61092C12.9205 4.64237 13.5 6.04132 13.5 7.50001Z" fill="#A1A3A8"/>
</svg>
