<svg width="25" height="24" viewBox="0 0 25 24" fill="none" xmlns="http://www.w3.org/2000/svg">
<g clip-path="url(#clip0_5_1578)">
<path fill-rule="evenodd" clip-rule="evenodd" d="M20.5 4H22.5V2H19.5C19.2348 2 18.9804 2.10536 18.7929 2.29289C18.6054 2.48043 18.5 2.73478 18.5 3V4H3.50001C3.36026 4 3.22205 4.02929 3.09431 4.08599C2.96657 4.14269 2.85214 4.22553 2.75838 4.32917C2.66463 4.43282 2.59365 4.55497 2.55001 4.68773C2.50636 4.8205 2.49104 4.96094 2.50501 5.1L3.50501 15.1C3.5298 15.3467 3.64533 15.5753 3.82918 15.7416C4.01304 15.9079 4.25211 16 4.50001 16H19.5C19.7652 16 20.0196 15.8946 20.2071 15.7071C20.3947 15.5196 20.5 15.2652 20.5 15V4ZM18.5 21C17.9696 21 17.4609 20.7893 17.0858 20.4142C16.7107 20.0391 16.5 19.5304 16.5 19C16.5 18.4696 16.7107 17.9609 17.0858 17.5858C17.4609 17.2107 17.9696 17 18.5 17C19.0304 17 19.5392 17.2107 19.9142 17.5858C20.2893 17.9609 20.5 18.4696 20.5 19C20.5 19.5304 20.2893 20.0391 19.9142 20.4142C19.5392 20.7893 19.0304 21 18.5 21ZM5.50001 21C4.96958 21 4.46087 20.7893 4.0858 20.4142C3.71073 20.0391 3.50001 19.5304 3.50001 19C3.50001 18.4696 3.71073 17.9609 4.0858 17.5858C4.46087 17.2107 4.96958 17 5.50001 17C6.03045 17 6.53915 17.2107 6.91423 17.5858C7.2893 17.9609 7.50001 18.4696 7.50001 19C7.50001 19.5304 7.2893 20.0391 6.91423 20.4142C6.53915 20.7893 6.03045 21 5.50001 21ZM18.5 14V6H4.60501L5.40501 14H18.5Z" fill="#424750"/>
</g>
<defs>
<clipPath id="clip0_5_1578">
<rect width="24" height="24" fill="white" transform="translate(0.5)"/>
</clipPath>
</defs>
</svg>
