<svg width="250" height="27" viewBox="0 0 250 27" fill="none" xmlns="http://www.w3.org/2000/svg">
<g clip-path="url(#clip0_79_357)">
<path d="M217.567 1.02238C217.691 0.862844 217.882 0.769531 218.083 0.769531H218.738C218.875 0.769531 218.952 0.92624 218.867 1.03379L214.685 6.41119C214.561 6.57073 214.37 6.66404 214.169 6.66404H213.514C213.377 6.66404 213.3 6.50733 213.385 6.39978L217.567 1.02238Z" fill="#39AE00"/>
<path d="M209.572 1.9971C209.536 1.65958 209.275 1.4248 208.921 1.4248H206.629L206.55 1.42891C206.21 1.46425 205.975 1.7242 205.975 2.07676V4.03263L205.978 4.1123C206.014 4.44992 206.275 4.68458 206.629 4.68458H208.921L209.001 4.68047C209.34 4.64515 209.576 4.3853 209.576 4.03263V2.07676L209.572 1.9971Z" fill="#39AE00"/>
<path d="M238.776 6.10758C238.41 6.10758 238.109 5.8317 238.07 5.47773L238.066 5.40075V2.13164C238.066 1.76725 238.343 1.46732 238.699 1.42895L238.776 1.4248H240.766C241.132 1.4248 241.434 1.70045 241.472 2.05462L241.476 2.13164L241.477 3.05431L243.764 3.05415C244.131 3.05415 244.432 3.32979 244.47 3.68397L244.475 3.76098V5.40075C244.475 5.76487 244.197 6.06503 243.842 6.10344L243.764 6.10758H238.776Z" fill="#39AE00"/>
<path fill-rule="evenodd" clip-rule="evenodd" d="M50.5137 2.73405C50.5137 2.37233 50.8069 2.0791 51.1686 2.0791H53.1335C53.4952 2.0791 53.7884 2.37233 53.7884 2.73405V9.93157V9.93844V13.8681C53.7884 14.9533 54.6682 15.8329 55.7532 15.8329H57.444C57.1984 15.2262 57.0631 14.563 57.0631 13.8681V11.9033C57.0631 9.00955 59.409 6.66372 62.3027 6.66372C65.1965 6.66372 67.5422 9.00955 67.5422 11.9033V13.8681C67.5422 16.7619 65.1965 19.1077 62.3027 19.1077H55.7532C52.8596 19.1077 50.5137 16.7619 50.5137 13.8681V13.2205V13.2132V2.73405ZM64.2675 11.9033C64.2675 10.8181 63.3878 9.93844 62.3027 9.93844C61.2175 9.93844 60.3378 10.8181 60.3378 11.9033V13.8681C60.3378 14.9533 61.2175 15.8329 62.3027 15.8329C63.3878 15.8329 64.2675 14.9533 64.2675 13.8681V11.9033Z" fill="#39AE00"/>
<path d="M21.6905 7.23636C21.6551 6.89883 21.3941 6.66406 21.0399 6.66406H15.8013L15.7213 6.66817C15.3822 6.70351 15.1465 6.96347 15.1465 7.31602V9.27188L15.1506 9.35156C15.186 9.68918 15.4471 9.92384 15.8013 9.92384H21.0399L21.1199 9.91973C21.459 9.88441 21.6947 9.62457 21.6947 9.27188V7.31602L21.6905 7.23636Z" fill="#39AE00"/>
<path d="M83.1162 22.3574C83.0777 22.0035 82.7764 21.7275 82.4104 21.7275H77.422L77.3446 21.7317C76.9888 21.7701 76.7119 22.0702 76.7119 22.4344V24.0742L76.7161 24.1512C76.7547 24.5054 77.056 24.781 77.422 24.781L79.7098 24.7808L79.7104 25.7035L79.7147 25.7805C79.7532 26.1347 80.0545 26.4103 80.4208 26.4103H82.4102L82.4876 26.4062C82.8433 26.3678 83.1202 26.0678 83.1202 25.7035L83.1204 22.4344L83.1162 22.3574Z" fill="#39AE00"/>
<path d="M15.868 19.7872C15.868 22.4963 13.495 24.9102 10.7861 25.0003L10.6294 25.0028H5.38314C2.49063 25.0028 0.229436 22.8063 0.154248 19.9526L0.152344 19.7872V13.9196C0.152344 13.5674 0.388396 13.3071 0.727235 13.2718L0.807194 13.2677H2.77165C3.12552 13.2677 3.38682 13.5027 3.42234 13.84L3.42647 13.9196L3.4197 19.776C3.41969 20.8245 4.23767 21.6799 5.26908 21.7397L5.38454 21.743H10.6294C11.4902 21.743 12.5176 20.7507 12.5899 19.883L12.5939 19.7872H9.97468C9.62047 19.7872 9.35948 19.5526 9.32395 19.2149L9.31983 19.1352V17.1405C9.31983 16.788 9.55555 16.528 9.89465 16.4927L9.97468 16.4885H21.0129C22.098 16.4885 22.9777 15.6089 22.9777 14.5237V10.594C22.9777 10.2323 23.2709 9.93909 23.6327 9.93909H25.5975C25.9592 9.93909 26.2524 10.2323 26.2524 10.594V14.5237C26.2524 15.2186 26.1172 15.8818 25.8716 16.4885H39.3761V13.2138C39.3761 11.3395 37.976 9.93909 36.102 9.93909H28.5716C27.9822 9.93909 27.8686 9.41091 28.2441 8.95667L33.7589 1.91252C34.0143 1.60366 34.3943 1.4248 34.7948 1.4248H37.3105C37.8165 1.4248 38.0938 2.01426 37.7714 2.40427L34.4649 6.66437H36.102C39.8568 6.66437 42.6501 9.45814 42.6501 13.2138V19.1083C42.6501 19.4887 42.3758 19.7633 41.9954 19.7633H25.6161C25.4011 19.7633 25.2 19.6579 25.0776 19.4811L24.4083 18.5144C23.4938 19.2932 22.3082 19.7633 21.0129 19.7633H15.8632L15.868 19.7872Z" fill="#39AE00"/>
<path d="M190.25 7.23636C190.215 6.89883 189.953 6.66406 189.6 6.66406H184.361L184.281 6.66817C183.941 6.70351 183.706 6.96347 183.706 7.31602V9.27188L183.711 9.35156C183.745 9.68918 184.006 9.92384 184.361 9.92384H189.6L189.68 9.91973C190.018 9.88441 190.255 9.62457 190.255 9.27188V7.31602L190.25 7.23636Z" fill="#39AE00"/>
<path d="M137.204 21.7275C137.558 21.7275 137.82 21.9623 137.854 22.2999L137.859 22.3795V24.3353C137.859 24.6881 137.623 24.9479 137.284 24.9832L137.204 24.9873H131.965C131.611 24.9873 131.35 24.7526 131.315 24.4151L131.311 24.3353V22.3795C131.311 22.027 131.546 21.767 131.886 21.7317L131.965 21.7275H137.204Z" fill="#39AE00"/>
<path d="M128.032 3.96195C127.996 3.62442 127.735 3.38965 127.381 3.38965H125.416L125.336 3.39376C124.997 3.42909 124.761 3.68904 124.761 4.04161V5.99747L124.765 6.07715C124.8 6.41477 125.061 6.64943 125.416 6.64943H127.381L127.46 6.64532C127.8 6.61 128.035 6.35014 128.035 5.99747V4.04161L128.032 3.96195Z" fill="#39AE00"/>
<path d="M162.42 3.38965C162.774 3.38965 163.035 3.62442 163.071 3.96195L163.075 4.04161V5.99747C163.075 6.35014 162.839 6.61 162.5 6.64532L162.42 6.64943H160.128C159.774 6.64943 159.513 6.41477 159.477 6.07715L159.474 5.99747V4.04161C159.474 3.68904 159.709 3.42909 160.048 3.39376L160.128 3.38965H162.42Z" fill="#39AE00"/>
<path d="M146.695 1.4248C146.492 1.4248 146.301 1.51812 146.177 1.67765L141.995 7.05505C141.911 7.16261 141.988 7.31931 142.124 7.31931H142.779C142.981 7.31931 143.172 7.226 143.295 7.06646L147.479 1.68906C147.562 1.58151 147.485 1.4248 147.349 1.4248H146.695Z" fill="#39AE00"/>
<path fill-rule="evenodd" clip-rule="evenodd" d="M212.798 16.4882C213.043 15.8814 213.179 15.2183 213.179 14.5234V12.5585C213.179 9.66482 210.833 7.31898 207.94 7.31898C205.046 7.31898 202.7 9.66482 202.7 12.5585V14.5234C202.7 15.2183 202.835 15.8814 203.081 16.4882H198.364C198.609 15.8814 198.745 15.2183 198.745 14.5234V10.5937C198.745 10.232 198.452 9.93876 198.09 9.93876H196.125C195.763 9.93876 195.47 10.232 195.47 10.5937V14.5234C195.47 15.6085 194.59 16.4882 193.505 16.4882H180.431C179.346 16.4882 178.466 15.6085 178.466 14.5234V10.5937C178.466 10.232 178.173 9.93876 177.811 9.93876H175.847C175.485 9.93876 175.192 10.232 175.192 10.5937V14.5234C175.192 17.4172 177.538 19.7629 180.431 19.7629H193.505C194.8 19.7629 195.985 19.2934 196.898 18.5155L197.567 19.4808C197.69 19.6575 197.89 19.7629 198.105 19.7629H222.345C223.883 19.7629 225.259 19.2943 226.349 18.483L227.039 19.4808C227.162 19.6575 227.363 19.7629 227.578 19.7629H231.492C232.787 19.7629 233.972 19.2935 234.886 18.5156L235.554 19.4808C235.676 19.6575 235.877 19.7629 236.093 19.7629H238.687C239.987 19.7629 241.177 19.2894 242.093 18.5054L242.767 19.4808C242.89 19.6575 243.092 19.7629 243.306 19.7629H243.936C246.83 19.7629 249.176 17.4172 249.176 14.5234V10.5937C249.176 10.232 248.882 9.93876 248.52 9.93876H246.556C246.194 9.93876 245.901 10.232 245.901 10.5937V14.5234C245.901 15.6085 245.021 16.4882 243.936 16.4882H243.546C243.791 15.8814 243.927 15.2183 243.927 14.5234V10.5937C243.927 10.232 243.633 9.93876 243.271 9.93876H241.307C240.945 9.93876 240.652 10.232 240.652 10.5937V14.5234C240.652 15.6085 239.772 16.4882 238.687 16.4882H236.351C236.596 15.8814 236.732 15.2183 236.732 14.5234V10.5937C236.732 10.232 236.439 9.93876 236.077 9.93876H234.112C233.75 9.93876 233.457 10.232 233.457 10.5937V14.5234C233.457 15.6085 232.577 16.4882 231.492 16.4882H228.082C228.602 15.5379 228.893 14.4259 228.893 13.2135V12.5585C228.893 8.80287 226.1 6.00909 222.345 6.00909H220.708L224.015 1.749C224.337 1.35898 224.06 0.769531 223.553 0.769531H221.038C220.637 0.769531 220.257 0.948386 220.002 1.25724L214.487 8.3014C214.112 8.75564 214.225 9.28382 214.814 9.28382H222.345C224.219 9.28382 225.619 10.6842 225.619 12.5585V13.2135C225.619 15.0878 224.219 16.4882 222.345 16.4882H212.798ZM209.904 14.5234V12.5585C209.904 11.4734 209.025 10.5937 207.94 10.5937C206.854 10.5937 205.974 11.4734 205.974 12.5585V14.5234C205.974 15.6085 206.854 16.4882 207.94 16.4882C209.025 16.4882 209.904 15.6085 209.904 14.5234Z" fill="#39AE00"/>
<path fill-rule="evenodd" clip-rule="evenodd" d="M95.705 16.4886V12.5589C95.705 9.66517 93.3588 7.31934 90.4651 7.31934C87.5715 7.31934 85.2256 9.66517 85.2256 12.5589V14.5237C85.2256 17.4175 87.5715 19.7633 90.4651 19.7633C91.0033 19.7633 91.5226 19.6822 92.0108 19.5314C91.4507 20.4725 90.4266 21.0732 89.1992 21.0732H86.4249C85.8356 21.0732 85.722 21.6014 86.0975 22.0556L87.4988 23.8455C87.747 24.1627 88.1274 24.3479 88.5302 24.3479H89.1992C92.2627 24.3479 94.6867 22.488 95.4751 19.7633H98.9513C100.246 19.7633 101.43 19.2939 102.345 18.5159L103.013 19.4811C103.135 19.6579 103.337 19.7633 103.552 19.7633H106.146C107.447 19.7633 108.636 19.2898 109.552 18.5058L110.227 19.4811C110.35 19.6579 110.55 19.7633 110.765 19.7633H111.395C114.289 19.7633 116.634 17.4175 116.634 14.5237V10.5941C116.634 10.2323 116.341 9.93912 115.98 9.93912H114.015C113.654 9.93912 113.36 10.2323 113.36 10.5941V14.5237C113.36 15.6089 112.481 16.4886 111.395 16.4886H111.005C111.251 15.8818 111.385 15.2186 111.385 14.5237V10.5941C111.385 10.2323 111.092 9.93912 110.731 9.93912H108.766C108.405 9.93912 108.111 10.2323 108.111 10.5941V14.5237C108.111 15.6089 107.232 16.4886 106.146 16.4886H103.81C104.056 15.8818 104.191 15.2186 104.191 14.5237V10.5941C104.191 10.2323 103.897 9.93912 103.536 9.93912H101.571C101.21 9.93912 100.917 10.2323 100.917 10.5941V14.5237C100.917 15.6089 100.036 16.4886 98.9513 16.4886H95.705ZM92.4303 12.5589V14.5237C92.4303 15.6089 91.5503 16.4886 90.4651 16.4886C89.38 16.4886 88.5003 15.6089 88.5003 14.5237V12.5589C88.5003 11.4737 89.38 10.5941 90.4651 10.5941C91.5503 10.5941 92.4303 11.4737 92.4303 12.5589Z" fill="#39AE00"/>
<path d="M155.77 17.7609L156.961 19.4808C157.083 19.6575 157.284 19.7629 157.499 19.7629H162.068C164.962 19.7629 167.308 17.4172 167.308 14.5234V10.5937C167.308 10.232 167.014 9.93876 166.652 9.93876H164.688C164.326 9.93876 164.033 10.232 164.033 10.5937V14.5234C164.033 15.6085 163.153 16.4882 162.068 16.4882H156.693C157.214 15.5379 157.505 14.4258 157.505 13.2135V12.5585C157.505 8.80286 154.711 6.00909 150.956 6.00909H149.319L152.626 1.749C152.948 1.35898 152.671 0.769531 152.165 0.769531H149.65C149.248 0.769531 148.868 0.948386 148.613 1.25724L143.098 8.3014C142.723 8.75564 142.836 9.28382 143.426 9.28382H150.956C152.83 9.28382 154.23 10.6842 154.23 12.5585V13.2135C154.23 15.0878 152.83 16.4882 150.956 16.4882H140.074C140.32 15.8814 140.454 15.2182 140.454 14.5234V10.5937C140.454 10.232 140.161 9.93876 139.8 9.93876H137.835C137.474 9.93876 137.18 10.232 137.18 10.5937V14.5234C137.18 15.6085 136.301 16.4882 135.215 16.4882H128.079V10.5937C128.079 10.232 127.785 9.93876 127.423 9.93876H125.459C125.097 9.93876 124.804 10.232 124.804 10.5937V18.453C124.804 20.3274 123.405 21.7278 121.53 21.7278H118.757C118.167 21.7278 118.053 22.256 118.429 22.7102L119.83 24.5001C120.078 24.8172 120.459 25.0025 120.862 25.0025H121.53C125.285 25.0025 128.079 22.2087 128.079 18.453V18.4417L128.798 19.4808C128.921 19.6575 129.121 19.7629 129.336 19.7629H135.215C136.529 19.7629 137.73 19.2794 138.65 18.4806L139.653 19.7629H150.956C152.905 19.7629 154.596 19.0102 155.77 17.7609Z" fill="#39AE00"/>
<path d="M72.8889 19.4805L72.7352 19.2584C72.3665 22.6011 69.7118 25.0022 66.2309 25.0022H65.5618C65.1591 25.0022 64.7787 24.817 64.5304 24.4998L63.1291 22.7099C62.7536 22.2557 62.8671 21.7275 63.4565 21.7275H66.2309C68.1049 21.7275 69.505 20.3271 69.505 18.4528L69.5043 10.5934C69.5043 10.2317 69.7975 9.93848 70.1593 9.93848H72.1241C72.4858 9.93848 72.779 10.2317 72.779 10.5934V16.4879H77.9964C79.0815 16.4879 79.9612 15.6083 79.9612 14.5231V10.5934C79.9612 10.2317 80.2544 9.93848 80.6161 9.93848H82.581C82.9427 9.93848 83.2359 10.2317 83.2359 10.5934V14.5231C83.2359 17.4169 80.89 19.7627 77.9964 19.7627H73.4274C73.2125 19.7627 73.0113 19.6572 72.8889 19.4805Z" fill="#39AE00"/>
<path d="M38.9416 22.7099L40.3429 24.4998C40.5911 24.817 40.9715 25.0022 41.3743 25.0022H42.0433C45.7982 25.0022 48.5915 22.2084 48.5915 18.4528V10.5934C48.5915 10.2317 48.2983 9.93848 47.9365 9.93848H45.9717C45.61 9.93848 45.3168 10.2317 45.3168 10.5934V18.4528C45.3168 20.3271 43.9173 21.7275 42.0433 21.7275H39.269C38.6797 21.7275 38.5661 22.2557 38.9416 22.7099Z" fill="#39AE00"/>
<path d="M169.953 2.73438C169.591 2.73438 169.298 3.02761 169.298 3.38932V19.108C169.298 19.4697 169.591 19.7629 169.953 19.7629H171.918C172.279 19.7629 172.573 19.4697 172.573 19.108V3.38932C172.573 3.02761 172.279 2.73438 171.918 2.73438H169.953Z" fill="#39AE00"/>
</g>
<defs>
<clipPath id="clip0_79_357">
<rect width="250" height="25.641" fill="white" transform="translate(0 0.769531)"/>
</clipPath>
</defs>
</svg>
