<svg width="25" height="24" viewBox="0 0 25 24" fill="none" xmlns="http://www.w3.org/2000/svg">
<g clip-path="url(#clip0_5_1571)">
<path fill-rule="evenodd" clip-rule="evenodd" d="M12.5 2C13.8261 2 15.0978 2.52678 16.0355 3.46447C16.9732 4.40215 17.5 5.67392 17.5 7V8C17.5 9.32608 16.9732 10.5979 16.0355 11.5355C15.0978 12.4732 13.8261 13 12.5 13C11.1739 13 9.90215 12.4732 8.96446 11.5355C8.02678 10.5979 7.5 9.32608 7.5 8V7C7.5 5.67392 8.02678 4.40215 8.96446 3.46447C9.90215 2.52678 11.1739 2 12.5 2ZM22.496 20.908C22.072 16.318 18.596 14 12.5 14C6.405 14 2.928 16.318 2.504 20.908C2.4912 21.0465 2.50744 21.1862 2.55168 21.318C2.59592 21.4499 2.66718 21.5711 2.76092 21.6739C2.85466 21.7767 2.9688 21.8587 3.09606 21.9149C3.22332 21.971 3.3609 22 3.5 22H21.5C21.6391 22 21.7767 21.971 21.9039 21.9149C22.0312 21.8587 22.1453 21.7767 22.2391 21.6739C22.3328 21.5711 22.4041 21.4499 22.4483 21.318C22.4926 21.1862 22.5088 21.0465 22.496 20.908ZM4.688 20C5.416 17.323 7.919 16 12.5 16C17.08 16 19.584 17.323 20.312 20H4.688ZM9.5 7C9.5 6.20435 9.81607 5.44129 10.3787 4.87868C10.9413 4.31607 11.7043 4 12.5 4C13.2956 4 14.0587 4.31607 14.6213 4.87868C15.1839 5.44129 15.5 6.20435 15.5 7V8C15.5 8.79565 15.1839 9.55871 14.6213 10.1213C14.0587 10.6839 13.2956 11 12.5 11C11.7043 11 10.9413 10.6839 10.3787 10.1213C9.81607 9.55871 9.5 8.79565 9.5 8V7Z" fill="black"/>
</g>
<defs>
<clipPath id="clip0_5_1571">
<rect width="24" height="24" fill="white" transform="translate(0.5)"/>
</clipPath>
</defs>
</svg>
